<?xml version="1.0" encoding="UTF-8"?><svg id="Layer_1" xmlns="http://www.w3.org/2000/svg" viewBox="0 0 720 300"><defs><style>.cls-1{fill:#fff;}.cls-2{fill:#7f7f7f;}</style></defs><rect width="720" height="300"/><rect class="cls-2" y="250" width="180" height="50"/><path class="cls-1" d="M21,153.87c0-46.2,32.1-75.6,68.4-75.6,18.3,0,33.6,7.8,48.6,21h.6l-.6-30V8.66h9v216.6h-7.8l-1.2-22.2h-.6c-12.9,13.5-31.8,25.8-52.8,25.8-37.8,0-63.6-26.4-63.6-75ZM138,192.27v-82.8c-17.4-16.5-33.3-22.8-49.2-22.8-32.4,0-58.2,30-58.2,67.2,0,39.6,20.4,66.6,54.6,66.6,17.7,0,35.7-10.2,52.8-28.2Z"/><path class="cls-1" d="M206.4,253.17c0-11.1,9-24.6,24.6-34.5v-1.2c-7.2-3.3-15-10.8-15-22.8,0-9,6-19.2,17.4-27v-1.2c-9-7.8-16.8-19.8-16.8-37.2,0-28.8,23.4-51,52.2-51,7.8,0,13.8,1.2,19.2,3.6h60v8.4h-45.6c9.6,9,18.6,22.5,18.6,39,0,28.8-23.4,50.4-52.2,50.4-9,0-19.2-2.4-28.2-7.2-9,5.4-15,13.2-15,21.3,0,14.7,13.8,21.3,34.2,21.3h36.9c36.3,0,51.3,9,51.3,31.8,0,24-28.8,48.6-74.4,48.6s-67.2-17.4-67.2-42.3ZM338.4,247.47c0-17.1-12.9-22.8-39.3-22.8h-36.3c-6.6,0-15-.6-21.9-2.7-18.6,9.9-24.9,21.3-24.9,32.4,0,18.3,18,32.7,55.8,32.7,41.7,0,66.6-20.4,66.6-39.6ZM311.4,129.27c0-24.6-19.2-42.6-42.6-42.6s-42.6,18-42.6,42.6,19.2,42,42.6,42,42.6-17.4,42.6-42Z"/><path class="cls-1" d="M385.8,206.07l5.4-7.2c15.6,12.6,34.5,21.6,66,21.6s47.4-14.4,47.4-30.6c0-13.8-4.8-25.2-52.8-34.8-36-7.2-57.6-18.6-57.6-39.6,0-19.8,16.5-37.2,54.6-37.2,18.3,0,40.5,7.2,54,17.4l-5.4,7.2c-12.6-9.6-29.1-16.2-49.2-16.2-33.9,0-44.4,13.8-44.4,28.2,0,16.2,15.6,24.6,49.2,31.5,50.4,10.5,61.2,21.9,61.2,42.9s-21,39.6-57.6,39.6c-30,0-54-10.8-70.8-22.8Z"/><path class="cls-1" d="M609.6,172.47v-82.2h-44.4v-7.2l44.4-1.2,1.2-48h7.8v48h78.6v8.4h-78.6v83.4c0,28.8,7.8,46.8,41.4,46.8,15.6,0,27.6-3,39.6-7.8l3,7.2c-13.2,5.4-25.8,9-43.2,9-38.4,0-49.8-22.8-49.8-56.4Z"/></svg>